<?xml version="1.0" standalone="no"?>
<!DOCTYPE svg PUBLIC "-//W3C//DTD SVG 20010904//EN"
 "http://www.w3.org/TR/2001/REC-SVG-20010904/DTD/svg10.dtd">
<svg version="1.0" xmlns="http://www.w3.org/2000/svg"
 width="550.000000pt" height="550.000000pt" viewBox="0 0 550.000000 550.000000"
 preserveAspectRatio="xMidYMid meet">
<metadata>
Created by potrace 1.11, written by Peter Selinger 2001-2013
</metadata>
<g transform="translate(0.000000,550.000000) scale(0.100000,-0.100000)"
fill="#000000" stroke="none">
<path d="M1605 4305 c-38 -7 -97 -21 -130 -30 -33 -10 -66 -18 -72 -18 -7 0
-13 -3 -13 -6 0 -9 -23 -10 -400 -9 -54 1 -115 -6 -115 -12 0 -1 -9 -3 -20 -5
-11 -2 -21 -9 -23 -15 -2 -5 -7 -8 -11 -5 -5 2 -31 -17 -60 -44 -28 -26 -51
-46 -51 -43 0 16 -95 -102 -115 -143 -20 -42 -23 -61 -19 -123 2 -40 6 -78 10
-83 8 -14 5 -312 -5 -433 -1 -5 -4 -7 -7 -3 -4 3 -21 -4 -38 -17 -26 -19 -53
-34 -76 -41 -14 -4 -126 -29 -135 -29 -34 -4 -175 -79 -183 -98 -2 -4 -8 -8
-14 -8 -22 0 -108 -73 -114 -97 -5 -19 1 -32 26 -58 18 -19 37 -32 42 -29 4 3
8 1 8 -4 0 -9 82 -48 124 -59 11 -3 73 -6 136 -8 124 -2 153 -7 183 -35 18
-18 18 -21 3 -68 -9 -27 -18 -57 -21 -68 -2 -10 -38 -122 -79 -249 -42 -126
-81 -256 -86 -287 -6 -32 -17 -77 -26 -99 -8 -23 -16 -51 -18 -63 -2 -12 -11
-51 -20 -89 -9 -37 -18 -82 -21 -100 -4 -17 -11 -52 -16 -77 -6 -25 -12 -77
-14 -115 -4 -103 17 -141 122 -222 18 -14 37 -22 43 -18 5 3 10 1 10 -5 0 -8
22 -11 70 -8 39 2 70 1 70 -3 0 -6 84 -37 115 -43 29 -5 116 -19 140 -22 11
-1 31 -5 45 -8 13 -3 42 -8 65 -11 22 -3 51 -8 65 -10 31 -5 105 -16 145 -21
17 -2 39 -5 51 -8 12 -2 45 -7 75 -11 30 -3 65 -8 79 -10 51 -10 320 -26 470
-28 67 -1 229 14 310 28 14 3 54 7 90 11 36 3 74 8 85 10 11 3 45 7 75 9 30 3
66 8 80 11 13 3 47 7 75 9 59 5 149 14 185 20 14 2 50 6 80 9 30 4 66 8 79 11
14 2 47 7 75 11 28 3 65 8 81 10 45 6 196 5 225 -1 73 -16 102 -19 240 -30 90
-8 107 -9 185 -19 92 -11 139 -15 260 -21 66 -4 154 -8 195 -11 41 -3 122 -7
180 -9 141 -5 302 -15 309 -19 3 -2 30 -7 60 -10 29 -4 57 -8 61 -11 4 -2 43
-6 86 -9 43 -2 86 -7 94 -10 43 -15 125 -15 159 1 47 21 72 43 64 56 -3 5 -1
7 5 4 6 -4 35 30 68 80 67 100 66 100 116 152 21 21 35 41 31 45 -3 3 -2 6 4
6 15 0 84 91 77 101 -3 5 -1 9 4 9 13 0 42 68 36 85 -4 8 -2 15 3 15 21 0 -30
208 -56 230 -3 3 -7 14 -7 25 -3 30 -28 139 -34 145 -3 3 -6 20 -8 39 -1 19
-7 40 -12 46 -5 7 -7 14 -4 17 3 3 1 23 -5 44 -5 22 -12 50 -15 64 -3 14 -14
68 -26 120 -11 52 -23 106 -25 120 -3 14 -7 36 -10 50 -6 33 -42 236 -49 280
-3 19 -8 46 -12 60 -3 14 -6 32 -6 40 0 8 -4 33 -8 55 -5 22 -11 63 -14 90 -4
28 -9 64 -12 80 -3 17 -7 41 -9 55 -8 64 -18 108 -31 148 -8 23 -14 49 -14 57
0 8 -4 15 -9 15 -5 0 -8 6 -8 13 1 20 -24 77 -35 77 -5 0 -7 4 -4 9 4 5 -7 38
-24 73 -16 34 -30 71 -30 80 0 9 -4 19 -8 22 -5 3 -9 24 -10 46 -1 23 -5 46
-8 51 -3 6 -7 29 -9 52 -2 23 -7 56 -10 72 -4 17 -8 37 -10 45 -2 8 -4 16 -5
18 -2 1 -3 5 -4 10 -13 53 -77 142 -102 142 -8 0 -14 5 -14 10 0 6 -3 9 -7 8
-5 0 -15 2 -23 5 -60 24 -205 29 -355 10 -69 -8 -853 -8 -1210 1 -132 3 -330
8 -440 11 -110 3 -294 7 -410 10 -115 3 -244 8 -285 11 -149 12 -425 11 -495
-1z"/>
</g>
</svg>
